<?xml version="1.0" encoding="UTF-8" standalone="no"?>
<!-- Created with Inkscape (http://www.inkscape.org/) -->

<svg
   xmlns:dc="http://purl.org/dc/elements/1.1/"
   xmlns:cc="http://creativecommons.org/ns#"
   xmlns:rdf="http://www.w3.org/1999/02/22-rdf-syntax-ns#"
   xmlns:svg="http://www.w3.org/2000/svg"
   xmlns="http://www.w3.org/2000/svg"
   xmlns:sodipodi="http://sodipodi.sourceforge.net/DTD/sodipodi-0.dtd"
   xmlns:inkscape="http://www.inkscape.org/namespaces/inkscape"
   width="30.48mm"
   height="30.48mm"
   viewBox="0 0 108 108"
   id="svg3396"
   version="1.1"
   inkscape:version="0.91 r13725"
   sodipodi:docname="LOGOicon.svg">
  <defs
     id="defs3398">
    <inkscape:perspective
       sodipodi:type="inkscape:persp3d"
       inkscape:vp_x="0 : 20 : 1"
       inkscape:vp_y="0 : 1000 : 0"
       inkscape:vp_z="39.999996 : 20 : 1"
       inkscape:persp3d-origin="19.999999 : 13.333333 : 1"
       id="perspective3380" />
  </defs>
  <sodipodi:namedview
     id="base"
     pagecolor="#ffffff"
     bordercolor="#666666"
     borderopacity="1.0"
     inkscape:pageopacity="0.0"
     inkscape:pageshadow="2"
     inkscape:zoom="0.98994949"
     inkscape:cx="383.58631"
     inkscape:cy="111.06108"
     inkscape:document-units="px"
     inkscape:current-layer="layer1"
     showgrid="false"
     inkscape:window-width="1440"
     inkscape:window-height="801"
     inkscape:window-x="87"
     inkscape:window-y="16"
     inkscape:window-maximized="0"
     fit-margin-top="0"
     fit-margin-left="0"
     fit-margin-right="0"
     fit-margin-bottom="0" />
  <metadata
     id="metadata3401">
    <rdf:RDF>
      <cc:Work
         rdf:about="">
        <dc:format>image/svg+xml</dc:format>
        <dc:type
           rdf:resource="http://purl.org/dc/dcmitype/StillImage" />
        <dc:title></dc:title>
      </cc:Work>
    </rdf:RDF>
  </metadata>
  <g
     inkscape:label="Layer 1"
     inkscape:groupmode="layer"
     id="layer1"
     transform="translate(283.85287,-131.36226)">
    <circle
       style="fill:#ffffff"
       id="path3378"
       cx="-229.85287"
       cy="185.36226"
       r="54" />
    <path
       id="_55696576"
       class="fil1"
       d="m -266.85287,187.50988 c 0,-26.81929 8.10381,-19.77875 24.94429,-10.05588 1.27923,0.66805 1.54833,2.12104 1.54833,2.33786 0,1.3516 -1.0953,2.44663 -2.44683,2.44663 -0.38331,0 -0.74583,-0.0888 -1.06885,-0.2455 l -6.9e-4,7.5e-4 -0.0153,-0.0184 c -10.95223,-5.42071 -18.04396,-14.41504 -18.04396,5.52465 0,14.86272 2.50431,12.0942 12.8785,6.10407 l 0.0411,0.0703 5.64684,-3.293 5.92542,-3.45618 c 0.34414,1.67111 1.22581,3.14446 2.45628,4.23411 l -5.9376,3.42712 c -16.44697,9.50365 -25.92727,20.02369 -25.92727,-7.07755 z m 36.99998,-7.61646 c 3.02087,0 5.47105,2.45015 5.47105,5.47063 0,3.02088 -2.45024,5.47083 -5.47105,5.47083 -3.02016,0 -5.47105,-2.45014 -5.47105,-5.47083 0,-3.02067 2.45089,-5.47063 5.47105,-5.47063 z m -5.70904,16.15718 c 1.41986,0 3.22097,1.98099 2.33865,3.33648 -7.09576,12.2903 -13.89805,18.05823 5.51636,18.05823 14.8635,0 12.09485,-2.50415 6.10453,-12.87749 l 0.0704,-0.0407 -3.29329,-5.64656 -3.45624,-5.92501 c 1.6706,-0.34336 3.14458,-1.22619 4.23448,-2.45607 l 3.42725,5.93777 c 9.49517,16.44542 20.0161,25.92501 -7.08696,25.92501 -26.82046,0 -19.78016,-8.10318 -10.05641,-24.94264 0.30086,-0.64401 1.23593,-1.36865 2.2014,-1.36865 z m 13.6019,-22.75281 c -0.4362,0.67488 -1.19524,1.12314 -2.05802,1.12314 -1.90467,0 -3.03295,-2.1018 -2.13169,-3.65079 l 0.01,-0.0184 0.0291,-0.0518 c 6.95514,-11.85224 13.1888,-17.42074 -5.88753,-17.42074 -14.86352,0 -12.09486,2.50415 -6.10456,12.8775 l -0.0704,0.0407 3.29332,5.64583 3.45626,5.92574 c -1.67059,0.34336 -3.14458,1.22453 -4.23445,2.45533 l -3.42728,-5.93703 c -9.49531,-16.44542 -20.0162,-25.92501 7.08685,-25.92501 26.82118,0 19.78021,8.10244 10.05645,24.94264 l -0.0172,-0.0184 z m 6.13097,15.43679 c 12.29098,7.09513 18.05944,13.89702 18.05944,-5.51615 0,-14.86254 -2.50436,-12.09402 -12.87846,-6.10409 l -0.0411,-0.0703 -5.64618,3.293 -5.92611,3.45599 c -0.34345,-1.67092 -1.22443,-3.14445 -2.45557,-4.2341 l 5.9376,-3.42694 c 16.44635,-9.49458 25.9266,-20.01481 25.9266,7.08644 0,26.80043 -8.09232,19.78891 -24.90977,10.07621 -0.77108,-0.4105 -1.29486,-1.22451 -1.29486,-2.15951 0,-1.56788 1.7302,-2.9193 3.22906,-2.40056 z"
       inkscape:connector-curvature="0"
       style="clip-rule:evenodd;fill:#0573b0;fill-rule:evenodd;image-rendering:optimizeQuality;shape-rendering:geometricPrecision;text-rendering:geometricPrecision" />
  </g>
</svg>
